<svg width="94" height="94" viewBox="0 0 94 94" fill="none" xmlns="http://www.w3.org/2000/svg">
<path d="M53.8503 1.93874C51.7845 0.687048 49.4153 0.0252686 47 0.0252686C44.5847 0.0252686 42.2155 0.687048 40.1498 1.93874L9.306 20.633C7.36234 21.8107 5.75514 23.4697 4.63959 25.4497C3.52404 27.4297 2.93781 29.6638 2.9375 31.9365V62.0635C2.93781 64.3361 3.52404 66.5703 4.63959 68.5503C5.75514 70.5303 7.36234 72.1892 9.306 73.367L40.1498 92.0612C42.2155 93.3129 44.5847 93.9747 47 93.9747C49.4153 93.9747 51.7845 93.3129 53.8503 92.0612L84.694 73.367C86.6377 72.1892 88.2449 70.5303 89.3604 68.5503C90.476 66.5703 91.0622 64.3361 91.0625 62.0635V31.9365C91.0622 29.6638 90.476 27.4297 89.3604 25.4497C88.2449 23.4697 86.6377 21.8107 84.694 20.633L53.8503 1.93874Z" fill="#46CE87"/>
<path d="M61.8128 30.3045C56.8748 27.9818 51.9389 25.6544 47.0052 23.3224L16.027 37.9237L21.3276 40.4826L20.8889 40.5531V67.8888H23.5V42.7543L25.38 42.4305L26.1111 42.783V56.5906C26.1111 58.9771 39.7046 65.8156 42.4279 67.1629C43.8438 67.8579 45.4021 68.2136 46.9793 68.2018C48.5565 68.19 50.1093 67.8111 51.5146 67.0951C67.8889 58.7134 67.8889 57.1702 67.8889 56.5906V42.783L77.9521 37.9342C77.9521 37.9342 68.0299 33.2316 61.8128 30.3045ZM65.2778 56.1493C60.4837 59.3403 55.4897 62.2202 50.3266 64.7712C49.2841 65.3032 48.1321 65.5849 46.9618 65.5939C45.7915 65.603 44.6352 65.3392 43.5847 64.8234C38.4029 62.3581 33.4321 59.4718 28.7222 56.1937V44.0389L47 52.8462L65.2778 44.0389V56.1493ZM47 49.9531L29.8084 41.6681L46.6997 38.7567L46.2558 36.1795L25.7586 39.7149L22.0952 37.9498L46.9974 26.2129C49.1516 27.2391 69.2519 36.6939 71.9126 37.9472L47 49.9531Z" fill="black"/>
</svg>
