<svg width="100" height="100" viewBox="0 0 100 100" fill="none" xmlns="http://www.w3.org/2000/svg">
<path d="M57.2875 2.06246C55.0899 0.730876 52.5695 0.0268555 50 0.0268555C47.4305 0.0268555 44.9101 0.730876 42.7125 2.06246L9.9 21.95C7.83227 23.2029 6.12249 24.9677 4.93573 27.0741C3.74897 29.1805 3.12533 31.5573 3.125 33.975V66.025C3.12533 68.4427 3.74897 70.8194 4.93573 72.9258C6.12249 75.0322 7.83227 76.7971 9.9 78.05L42.7125 97.9375C44.9101 99.269 47.4305 99.9731 50 99.9731C52.5695 99.9731 55.0899 99.269 57.2875 97.9375L90.1 78.05C92.1677 76.7971 93.8775 75.0322 95.0643 72.9258C96.251 70.8194 96.8747 68.4427 96.875 66.025V33.975C96.8747 31.5573 96.251 29.1805 95.0643 27.0741C93.8775 24.9677 92.1677 23.2029 90.1 21.95L57.2875 2.06246Z" fill="#C57EEC"/>
<path d="M32.8771 47.1461H44.2925M38.5849 41.4384V52.8539M58.562 50H58.5905M67.1236 44.2922H67.1521M45.5739 30.0228H54.427C61.9181 30.0228 65.6636 30.0228 68.6036 31.4424C71.1921 32.6923 73.3428 34.6949 74.774 37.1878C76.3993 40.0191 76.6661 43.7552 77.2001 51.2272L77.9021 61.0574C78.2463 65.8773 74.429 69.9772 69.5968 69.9772C67.1256 69.9772 64.782 68.8796 63.2001 66.9812L62.1293 65.6963C61.1501 64.5211 60.6604 63.9335 60.1028 63.4586C58.9341 62.4635 57.5189 61.8005 56.006 61.54C55.2843 61.4155 54.5194 61.4155 52.9897 61.4155H47.0112C45.4815 61.4155 44.7166 61.4155 43.9948 61.54C42.4818 61.8005 41.0668 62.4635 39.898 63.4586C39.3404 63.9335 38.8507 64.5211 37.8714 65.6963L36.8007 66.9812C35.2187 68.8796 32.8753 69.9772 30.4041 69.9772C25.5719 69.9772 21.7544 65.8773 22.0987 61.0574L22.8009 51.2272C23.3346 43.7552 23.6014 40.0191 25.2269 37.1878C26.6581 34.6949 28.8088 32.6923 31.3973 31.4424C34.3372 30.0228 38.0828 30.0228 45.5739 30.0228Z" stroke="black" stroke-width="5.70776" stroke-linecap="round" stroke-linejoin="round"/>
</svg>
