<svg width="312" height="64" viewBox="0 0 312 64" fill="none" xmlns="http://www.w3.org/2000/svg">
<path d="M47.912 51.552C47.5707 51.552 47.208 51.488 46.824 51.36C45.7147 51.0187 45.16 50.0373 45.16 48.416C45.16 47.392 45.544 45.2587 46.312 42.016C46.7813 40.096 47.5493 37.6213 48.616 34.592C49.6827 31.6907 50.28 30.176 50.408 30.048C50.2373 29.92 48.3173 29.856 44.648 29.856H40.36C33.7893 29.8987 30.2693 30.0907 29.8 30.432C29.5867 30.6027 29.3307 30.9227 29.032 31.392C28.776 31.8187 28.4773 32.3947 28.136 33.12L26.024 37.28C25.5973 38.1333 25.1707 39.072 24.744 40.096C24.3173 41.0773 23.9333 42.1653 23.592 43.36C23.4213 44.512 22.6533 45.088 21.288 45.088C20.4347 45.088 20.008 44.8107 20.008 44.256C20.008 42.464 22.0133 38.0907 26.024 31.136C23.848 31.4773 22.9307 31.776 23.272 32.032C23.3573 32.1173 23.4 32.1813 23.4 32.224C23.4 32.3093 23.3573 32.352 23.272 32.352C23.1013 32.352 22.7387 32.2027 22.184 31.904C21.416 31.4347 21.032 30.9653 21.032 30.496C21.032 29.984 21.6933 29.5787 23.016 29.28C23.7413 29.1947 24.4667 29.1093 25.192 29.024C25.9173 28.896 26.664 28.7467 27.432 28.576C29.4373 25.1627 30.9947 22.4747 32.104 20.512C33.256 18.5493 33.9813 17.2907 34.28 16.736C36.84 11.7867 38.12 8.20266 38.12 5.984C38.12 4.704 37.736 3.808 36.968 3.296C35.688 2.4 34.1947 1.952 32.488 1.952C29.7147 1.952 25.0213 3.296 18.408 5.984C14.952 7.34933 11.5387 9.696 8.168 13.024C4.62667 16.5653 2.856 19.5947 2.856 22.112C2.856 23.4347 3.432 24.5227 4.584 25.376C6.16267 26.4853 7.80533 27.04 9.512 27.04C9.98133 27.04 10.5147 26.9973 11.112 26.912C11.7093 26.8267 12.0507 26.784 12.136 26.784C12.3493 26.784 12.456 26.848 12.456 26.976C12.456 27.104 12.392 27.2747 12.264 27.488C12.008 28 10.8347 28.256 8.744 28.256C6.73867 28.256 5.13867 27.9147 3.944 27.232C1.59733 25.9093 0.424 23.9253 0.424 21.28C0.424 19.872 0.850667 18.5067 1.704 17.184C5.33067 11.936 11.176 7.54133 19.24 4C25.0853 1.39733 30.5253 0.0959969 35.56 0.0959969C39.656 0.0959969 41.8533 1.39733 42.152 4C42.2373 4.59733 41.896 5.83467 41.128 7.712C40.4027 9.54666 39.2293 11.9787 37.608 15.008L30.12 28.832H31.592C32.2747 28.832 32.8293 28.8107 33.256 28.768C33.7253 28.7253 34.1093 28.704 34.408 28.704H37.736C41.2773 28.704 45.672 28.768 50.92 28.896C51.0907 28.4693 51.56 27.4027 52.328 25.696C53.096 23.9467 54.2053 21.536 55.656 18.464C57.5333 14.4533 59.9867 10.9333 63.016 7.904C66.3867 4.53333 69.4373 2.848 72.168 2.848C72.9787 2.848 73.768 3.01867 74.536 3.36C74.7493 3.44533 74.9413 3.53067 75.112 3.616C75.3253 3.65866 75.5173 3.72266 75.688 3.808C76.328 4.064 76.6693 4.384 76.712 4.768C76.84 5.62133 76.712 6.45333 76.328 7.264C75.9867 8.032 75.6667 8.416 75.368 8.416C75.1973 8.416 75.112 8.288 75.112 8.032C75.112 7.776 75.1547 7.34933 75.24 6.752C75.368 6.15467 75.432 5.74933 75.432 5.536C75.432 5.152 75.3467 4.87467 75.176 4.704C74.4933 4.02133 73.6613 3.68 72.68 3.68C70.8453 3.68 68.7333 4.85333 66.344 7.2C63.9547 9.54666 61.672 12.7467 59.496 16.8C57.7893 19.9573 56.488 22.5387 55.592 24.544C54.696 26.5067 54.1627 27.9147 53.992 28.768C54.4613 28.7253 54.888 28.704 55.272 28.704C55.656 28.704 56.0187 28.704 56.36 28.704C58.536 28.704 60.008 28.8533 60.776 29.152C60.9467 29.1947 61.032 29.2587 61.032 29.344C61.032 29.8133 60.3067 30.0693 58.856 30.112C57.96 30.1547 57.064 30.176 56.168 30.176C55.272 30.176 54.3973 30.176 53.544 30.176C52.9893 31.5413 52.4347 33.0347 51.88 34.656C51.3253 36.2347 50.792 37.8987 50.28 39.648C49.2133 43.488 48.68 46.368 48.68 48.288C48.68 48.7147 48.7653 49.1627 48.936 49.632C49.1067 50.144 49.192 50.4853 49.192 50.656C49.192 51.2533 48.7653 51.552 47.912 51.552ZM65.006 44.704C61.8913 44.704 60.334 42.784 60.334 38.944C60.334 35.104 61.87 31.4347 64.942 27.936C64.9847 27.8933 64.9633 27.744 64.878 27.488C64.7927 27.1893 64.75 26.976 64.75 26.848C64.75 26.592 64.8353 26.4 65.006 26.272C66.4993 25.0773 68.2487 24.48 70.254 24.48C70.8087 24.48 71.2567 24.5867 71.598 24.8C72.0247 24.9707 72.43 25.1413 72.814 25.312C73.198 25.4827 73.5607 25.6747 73.902 25.888C75.5233 26.8693 76.654 27.8933 77.294 28.96C78.3607 28.9173 79.2567 28.8747 79.982 28.832C80.7073 28.7893 81.262 28.7467 81.646 28.704H81.902C82.286 28.704 82.478 28.8533 82.478 29.152C82.478 29.2373 82.3927 29.3013 82.222 29.344C81.7527 29.4293 81.134 29.536 80.366 29.664C79.6407 29.792 78.7447 29.92 77.678 30.048C77.806 30.3467 77.87 30.688 77.87 31.072C77.87 31.3707 77.8487 31.584 77.806 31.712C77.166 35.168 75.4807 38.1973 72.75 40.8C70.1047 43.4027 67.5233 44.704 65.006 44.704ZM75.758 28.96C75.0753 27.8933 73.7313 27.36 71.726 27.36C70.19 27.36 69.1873 27.5307 68.718 27.872C68.59 27.9147 68.462 28 68.334 28.128C68.206 28.256 68.0567 28.4053 67.886 28.576C70.2753 28.8747 72.8993 29.0027 75.758 28.96ZM65.198 43.68C67.0753 43.68 69.23 42.336 71.662 39.648C74.1367 36.96 75.6087 34.3573 76.078 31.84C76.1207 31.6267 76.142 31.456 76.142 31.328C76.1847 31.1573 76.206 31.008 76.206 30.88C76.206 30.624 76.1633 30.368 76.078 30.112C75.2673 30.1547 74.4353 30.176 73.582 30.176C72.7287 30.176 71.8753 30.176 71.022 30.176C70.1687 30.176 69.3793 30.176 68.654 30.176C67.9713 30.176 67.3527 30.1547 66.798 30.112C65.0913 32.416 64.0247 34.272 63.598 35.68C63.086 37.2587 62.83 38.7733 62.83 40.224C62.83 42.528 63.6193 43.68 65.198 43.68ZM68.078 21.472C67.694 21.472 67.502 21.3227 67.502 21.024C67.502 20.8107 67.63 20.64 67.886 20.512C68.3127 20.1707 68.6967 19.8933 69.038 19.68C69.3793 19.4667 69.678 19.2747 69.934 19.104C70.4887 18.7627 71.1927 18.2933 72.046 17.696C72.8993 17.056 73.8807 16.3307 74.99 15.52C75.4593 15.1787 75.8433 15.008 76.142 15.008C76.526 15.008 76.9953 15.584 77.55 16.736C77.8487 17.376 78.2753 18.1013 78.83 18.912C79.3847 19.68 80.11 20.064 81.006 20.064C81.3473 20.064 81.646 20.0427 81.902 20C82.2007 19.9147 82.4567 19.7867 82.67 19.616C82.926 19.4027 83.182 19.296 83.438 19.296C83.6087 19.296 83.694 19.36 83.694 19.488C83.694 19.616 83.5873 19.7867 83.374 20C82.8193 20.512 82.286 20.896 81.774 21.152C81.3047 21.3653 80.5793 21.472 79.598 21.472C78.574 21.472 77.7207 21.1093 77.038 20.384C76.398 19.616 75.9073 18.848 75.566 18.08C75.3953 17.6533 75.0967 17.44 74.67 17.44C74.3287 17.44 73.9233 17.6107 73.454 17.952C72.6433 18.5493 71.8967 19.0827 71.214 19.552C70.574 20.0213 69.6993 20.6187 68.59 21.344C68.5047 21.3867 68.4193 21.4293 68.334 21.472C68.2487 21.472 68.1633 21.472 68.078 21.472ZM86.318 16.224C86.1473 16.224 85.6567 16.0533 84.846 15.712C84.078 15.3707 83.1607 14.816 82.094 14.048C81.0273 13.28 80.0033 12.512 79.022 11.744C78.894 11.616 78.83 11.4667 78.83 11.296C78.83 10.9547 78.958 10.6133 79.214 10.272C79.5127 9.93067 79.79 9.76 80.046 9.76C80.2167 9.76 80.366 9.84533 80.494 10.016C80.9633 10.6133 81.6887 11.36 82.67 12.256C83.6513 13.152 84.6113 14.0267 85.55 14.88C86.19 15.52 86.51 15.9253 86.51 16.096C86.51 16.1813 86.446 16.224 86.318 16.224ZM106.728 50.72C102.461 50.72 99.0693 49.3333 96.552 46.56C94.248 44 93.096 40.7573 93.096 36.832C93.096 33.9307 93.7573 31.0293 95.08 28.128C97.4693 22.9227 100.904 18.208 105.384 13.984C109.907 9.76 115.517 6.32533 122.216 3.68C125.416 2.4 128.488 1.76 131.432 1.76C134.333 1.76 136.68 2.37866 138.472 3.616C140.264 4.81066 141.16 6.432 141.16 8.48C141.16 9.504 140.989 10.592 140.648 11.744C140.349 12.8533 139.709 14.0267 138.728 15.264C136.381 18.3787 133.629 20.9173 130.472 22.88C128.851 23.8187 127.336 24.4587 125.928 24.8C124.563 25.1413 123.261 25.312 122.024 25.312C118.995 25.312 117.245 23.8613 116.776 20.96V20.704C116.776 20.1493 117.096 19.872 117.736 19.872C118.333 19.872 118.653 20.1493 118.696 20.704C119.037 22.88 120.232 23.968 122.28 23.968C124.285 23.968 126.589 23.072 129.192 21.28C130.557 20.384 131.795 19.4027 132.904 18.336C134.013 17.2267 135.037 16.0533 135.976 14.816C137.981 12.0427 138.984 9.71733 138.984 7.84C138.984 4.81067 136.829 3.296 132.52 3.296C129.576 3.296 126.504 4.02133 123.304 5.472C120.061 6.92266 117.053 8.608 114.28 10.528C111.507 12.4053 108.968 14.5387 106.664 16.928C103.165 20.5547 100.541 24.352 98.792 28.32C97.512 31.1787 96.872 34.0373 96.872 36.896C96.872 40.1813 97.7253 42.8053 99.432 44.768C101.437 47.0293 104.339 48.16 108.136 48.16C108.947 48.16 109.8 48.096 110.696 47.968C111.592 47.8827 112.531 47.7333 113.512 47.52C117.565 46.624 122.387 44.4267 127.976 40.928C132.328 38.24 135.507 35.9573 137.512 34.08C138.877 32.8 139.795 32.16 140.264 32.16C140.349 32.16 140.392 32.2027 140.392 32.288C140.392 32.5867 140.115 32.992 139.56 33.504C137.469 35.3387 135.635 36.9173 134.056 38.24C132.477 39.5627 131.176 40.5867 130.152 41.312C127.677 43.104 125.224 44.6187 122.792 45.856C120.403 47.0933 118.035 48.1387 115.688 48.992C112.445 50.144 109.459 50.72 106.728 50.72ZM144.444 44.704C141.329 44.704 139.772 42.784 139.772 38.944C139.772 35.104 141.308 31.4347 144.38 27.936C144.422 27.8933 144.401 27.744 144.316 27.488C144.23 27.1893 144.188 26.976 144.188 26.848C144.188 26.592 144.273 26.4 144.444 26.272C145.937 25.0773 147.686 24.48 149.692 24.48C150.246 24.48 150.694 24.5867 151.036 24.8C151.462 24.9707 151.868 25.1413 152.252 25.312C152.636 25.4827 152.998 25.6747 153.34 25.888C154.961 26.8693 156.092 27.8933 156.732 28.96C157.798 28.9173 158.694 28.8747 159.42 28.832C160.145 28.7893 160.7 28.7467 161.084 28.704H161.34C161.724 28.704 161.916 28.8533 161.916 29.152C161.916 29.2373 161.83 29.3013 161.66 29.344C161.19 29.4293 160.572 29.536 159.804 29.664C159.078 29.792 158.182 29.92 157.116 30.048C157.244 30.3467 157.308 30.688 157.308 31.072C157.308 31.3707 157.286 31.584 157.244 31.712C156.604 35.168 154.918 38.1973 152.188 40.8C149.542 43.4027 146.961 44.704 144.444 44.704ZM155.196 28.96C154.513 27.8933 153.169 27.36 151.164 27.36C149.628 27.36 148.625 27.5307 148.156 27.872C148.028 27.9147 147.9 28 147.772 28.128C147.644 28.256 147.494 28.4053 147.324 28.576C149.713 28.8747 152.337 29.0027 155.196 28.96ZM144.635 43.68C146.513 43.68 148.668 42.336 151.1 39.648C153.574 36.96 155.046 34.3573 155.516 31.84C155.558 31.6267 155.58 31.456 155.58 31.328C155.622 31.1573 155.644 31.008 155.644 30.88C155.644 30.624 155.601 30.368 155.516 30.112C154.705 30.1547 153.873 30.176 153.02 30.176C152.166 30.176 151.313 30.176 150.46 30.176C149.606 30.176 148.817 30.176 148.092 30.176C147.409 30.176 146.79 30.1547 146.236 30.112C144.529 32.416 143.462 34.272 143.036 35.68C142.524 37.2587 142.268 38.7733 142.268 40.224C142.268 42.528 143.057 43.68 144.635 43.68ZM147.516 21.472C147.132 21.472 146.94 21.3227 146.94 21.024C146.94 20.8107 147.068 20.64 147.324 20.512C147.75 20.1707 148.134 19.8933 148.476 19.68C148.817 19.4667 149.116 19.2747 149.372 19.104C149.926 18.7627 150.63 18.2933 151.484 17.696C152.337 17.056 153.318 16.3307 154.428 15.52C154.897 15.1787 155.281 15.008 155.58 15.008C155.964 15.008 156.433 15.584 156.988 16.736C157.286 17.376 157.713 18.1013 158.268 18.912C158.822 19.68 159.548 20.064 160.444 20.064C160.785 20.064 161.084 20.0427 161.34 20C161.638 19.9147 161.894 19.7867 162.108 19.616C162.364 19.4027 162.62 19.296 162.876 19.296C163.046 19.296 163.132 19.36 163.132 19.488C163.132 19.616 163.025 19.7867 162.812 20C162.257 20.512 161.724 20.896 161.212 21.152C160.742 21.3653 160.017 21.472 159.036 21.472C158.012 21.472 157.158 21.1093 156.476 20.384C155.836 19.616 155.345 18.848 155.003 18.08C154.833 17.6533 154.534 17.44 154.108 17.44C153.766 17.44 153.361 17.6107 152.892 17.952C152.081 18.5493 151.334 19.0827 150.652 19.552C150.012 20.0213 149.137 20.6187 148.028 21.344C147.942 21.3867 147.857 21.4293 147.772 21.472C147.686 21.472 147.601 21.472 147.516 21.472ZM173.53 44.64C172.591 44.7253 171.695 44.4907 170.842 43.936C169.989 43.3387 169.562 42.6773 169.562 41.952C169.562 40.6293 170.821 38.0907 173.338 34.336C176.111 30.1973 177.498 27.808 177.498 27.168C177.498 26.784 177.306 26.5707 176.922 26.528C175.685 26.6133 173.765 27.8507 171.162 30.24C167.45 33.696 163.973 38.3893 160.73 44.32C160.645 44.4053 160.41 44.448 160.026 44.448C158.191 44.448 157.359 44.192 157.53 43.68C157.999 42.4427 158.81 40.5867 159.962 38.112C161.157 35.6373 162.693 32.5227 164.57 28.768C165.85 26.2507 167.151 24.992 168.474 24.992C168.901 24.992 169.178 25.0987 169.306 25.312C169.391 25.44 168.495 27.2747 166.618 30.816C165.722 32.5227 165.018 33.888 164.506 34.912C163.994 35.8933 163.631 36.5333 163.418 36.832C164.143 36.1067 164.997 35.2107 165.978 34.144C167.002 33.0773 168.175 31.84 169.498 30.432C171.589 28.0853 173.893 26.336 176.41 25.184C177.007 24.928 177.69 24.8 178.458 24.8C180.207 24.8 181.082 25.44 181.082 26.72C181.082 27.5307 180.677 28.4907 179.866 29.6C175.258 36.0427 172.954 40.3733 172.954 42.592C172.954 43.0613 173.103 43.36 173.402 43.488C174.085 43.7867 175.77 43.0827 178.458 41.376C181.615 39.328 184.303 36.7893 186.522 33.76C186.991 33.12 187.418 32.8 187.802 32.8C187.93 32.8 187.994 32.8427 187.994 32.928C187.994 33.1413 187.802 33.5467 187.418 34.144C185.541 37.088 182.938 39.6907 179.61 41.952C176.623 43.9147 174.597 44.8107 173.53 44.64ZM180.245 63.712C178.624 63.712 177.813 62.9013 177.813 61.28C177.813 59.9573 178.389 58.3787 179.541 56.544C180.267 55.392 181.184 54.1547 182.294 52.832C183.446 51.552 184.811 50.1867 186.39 48.736C189.206 46.0053 192.192 43.6373 195.35 41.632C195.734 40.6933 196.16 39.5413 196.63 38.176C197.099 36.8107 197.632 35.1893 198.23 33.312C198.102 33.6107 197.632 34.2293 196.822 35.168C196.054 36.064 194.923 37.3227 193.43 38.944C189.846 42.912 187.307 44.704 185.814 44.32C183.51 43.7227 182.358 42.4427 182.358 40.48C182.358 38.56 183.488 36.0427 185.75 32.928C186.39 32.0747 187.179 31.2213 188.118 30.368C189.056 29.5147 190.123 28.6827 191.318 27.872C194.347 25.7813 197.206 24.736 199.894 24.736C201.558 24.736 203.072 25.1627 204.438 26.016C204.822 26.272 205.014 26.592 205.014 26.976C205.014 27.36 204.928 27.552 204.758 27.552C204.715 27.552 204.672 27.5307 204.63 27.488C203.776 26.5067 202.603 26.016 201.11 26.016C199.36 26.016 197.398 26.6773 195.222 28C193.046 29.3227 191.04 31.0933 189.206 33.312C186.347 36.8107 184.918 39.5413 184.918 41.504C184.918 42.4 185.259 42.9973 185.942 43.296C186.88 43.68 189.248 41.7813 193.046 37.6C194.539 35.936 195.819 34.4427 196.885 33.12C197.995 31.7973 198.87 30.6667 199.51 29.728C199.808 29.3013 200.235 29.088 200.79 29.088C201.814 29.088 202.326 29.472 202.326 30.24C202.326 30.4107 202.262 30.6027 202.134 30.816C201.835 31.6693 201.43 32.8213 200.918 34.272C200.406 35.68 199.787 37.3867 199.062 39.392C200.427 38.5813 201.515 38.176 202.326 38.176C202.667 38.176 202.838 38.2613 202.838 38.432C202.838 38.8587 202.304 39.264 201.238 39.648C200.811 39.8187 200.342 40.0107 199.83 40.224C199.36 40.4373 198.848 40.6933 198.294 40.992C195.307 48.416 191.702 54.5387 187.478 59.36C184.918 62.2613 182.507 63.712 180.245 63.712ZM181.59 62.368C182.4 62.368 183.382 61.7067 184.534 60.384C188.331 56.1173 191.659 50.528 194.518 43.616C188.843 47.84 184.619 52.2347 181.846 56.8C180.907 58.2933 180.438 59.616 180.438 60.768C180.438 61.8347 180.822 62.368 181.59 62.368ZM226.854 49.952C226.214 49.952 225.531 49.7387 224.806 49.312C224.336 49.0133 223.974 48.8 223.718 48.672C223.462 48.544 223.291 48.4587 223.206 48.416C221.67 47.6907 220.902 46.3467 220.902 44.384C220.902 42.7627 221.456 40.7147 222.566 38.24C226.064 30.688 230.715 23.072 236.518 15.392C237.286 14.4533 237.84 13.536 238.182 12.64C238.395 12.0853 238.715 11.6587 239.142 11.36C239.654 10.8907 240.678 10.3573 242.214 9.76C243.75 9.16267 244.923 8.864 245.734 8.864C246.587 8.864 246.971 9.16267 246.886 9.76C246.843 9.93067 246.31 10.3787 245.286 11.104C244.603 11.616 243.92 12.1707 243.238 12.768C242.555 13.3653 241.872 14.0267 241.19 14.752C239.227 16.7147 236.667 20.1067 233.51 24.928C231.76 27.616 230.118 30.4107 228.582 33.312C227.046 36.2133 225.638 39.2427 224.358 42.4C223.846 43.5947 223.59 44.64 223.59 45.536C223.59 46.9867 224.272 47.9467 225.638 48.416C234.043 48.7573 242.598 46.3467 251.302 41.184C259.792 36.1493 265.616 30.2187 268.774 23.392C269.67 21.472 270.118 19.552 270.118 17.632C270.118 13.664 268.304 10.3147 264.678 7.584C261.008 4.81067 256.038 3.168 249.766 2.656C248.571 2.57067 247.376 2.50667 246.182 2.464C244.987 2.37866 243.814 2.336 242.662 2.336C233.403 2.336 225.936 3.85066 220.262 6.88C215.355 9.48266 212.901 12.5333 212.901 16.032C212.901 19.36 215.163 21.6853 219.686 23.008C220.923 23.2213 221.542 23.4133 221.542 23.584C221.542 23.84 221.008 24.0533 219.942 24.224C219.643 24.2667 219.344 24.3093 219.046 24.352C218.79 24.352 218.534 24.352 218.278 24.352C218.064 24.352 217.851 24.352 217.638 24.352C217.424 24.352 217.211 24.3307 216.998 24.288C211.323 22.88 208.485 20.3627 208.485 16.736C208.485 12.8533 211.451 9.35467 217.382 6.24C223.995 2.784 232.294 1.056 242.278 1.056C244.838 1.056 247.462 1.184 250.15 1.44C257.446 2.16533 263.206 4 267.43 6.944C271.696 9.888 273.83 13.536 273.83 17.888C273.83 19.8507 273.382 21.856 272.486 23.904C269.627 30.4747 263.718 36.3627 254.758 41.568C245.627 46.8587 236.326 49.6533 226.854 49.952ZM283.07 44.448C281.961 44.192 280.915 43.5947 279.934 42.656C279.721 42.4427 279.614 42.1227 279.614 41.696C279.614 39.9893 280.382 37.6 281.918 34.528C280.723 36.064 279.742 37.3227 278.974 38.304C278.206 39.2853 277.63 39.9893 277.246 40.416C275.582 42.336 274.195 43.488 273.086 43.872C272.702 44 272.318 44.064 271.934 44.064C270.355 44.064 269.438 43.424 269.182 42.144C269.011 41.76 268.926 41.2267 268.926 40.544C268.926 38.4533 270.313 34.464 273.086 28.576C273.726 27.2107 274.451 26.528 275.262 26.528C275.859 26.528 276.435 26.976 276.99 27.872L274.302 33.184C273.363 35.0187 272.638 36.5973 272.126 37.92C271.657 39.2427 271.422 40.2667 271.422 40.992C271.422 42.016 271.763 42.528 272.446 42.528C273.555 42.528 275.347 41.0987 277.822 38.24C279.145 36.704 280.425 34.9973 281.662 33.12C282.942 31.2427 284.201 29.1947 285.438 26.976C285.694 26.464 286.078 26.208 286.59 26.208C287.017 26.208 287.422 26.4 287.806 26.784C288.233 27.1253 288.403 27.3813 288.318 27.552C284.179 36.128 282.11 41.056 282.11 42.336C282.11 42.848 282.281 43.0613 282.622 42.976C286.078 42.6773 289.79 39.6267 293.758 33.824C293.971 33.44 294.206 33.2267 294.462 33.184C294.718 33.0987 294.846 33.184 294.846 33.44C294.846 33.6107 294.761 33.8453 294.59 34.144C292.713 37.088 290.473 39.6693 287.87 41.888C285.566 43.808 283.966 44.6613 283.07 44.448ZM289.139 63.712C287.517 63.712 286.706 62.9013 286.706 61.28C286.706 59.9573 287.282 58.3787 288.434 56.544C289.16 55.392 290.077 54.1547 291.187 52.832C292.339 51.552 293.704 50.1867 295.283 48.736C298.099 46.0053 301.085 43.6373 304.243 41.632C304.968 39.84 305.587 38.1333 306.099 36.512C306.653 34.8907 307.123 33.376 307.507 31.968C307.208 32.48 305.565 34.4853 302.579 37.984C298.952 42.2507 296.456 44.384 295.091 44.384C294.92 44.384 294.792 44.3627 294.707 44.32L292.786 43.296C292.189 42.9547 291.827 42.6347 291.699 42.336C291.571 41.9947 291.507 41.6533 291.507 41.312C291.507 40.16 291.848 38.5173 292.531 36.384C293.213 34.2507 294.28 31.648 295.731 28.576C296.371 27.2107 297.096 26.528 297.907 26.528C298.504 26.528 299.08 26.976 299.635 27.872L296.819 33.44C294.813 37.3653 293.811 40.096 293.811 41.632C293.811 42.656 294.152 43.168 294.835 43.168C296.2 43.168 298.76 40.8427 302.515 36.192C303.752 34.6987 304.883 33.2693 305.907 31.904C306.973 30.496 307.933 29.1307 308.787 27.808C309.085 27.3813 309.512 27.168 310.067 27.168C311.091 27.168 311.603 27.552 311.603 28.32C311.603 28.4907 311.539 28.6827 311.411 28.896C311.069 30.0907 310.6 31.5627 310.003 33.312C309.448 35.0187 308.765 37.0453 307.955 39.392C309.32 38.5813 310.408 38.176 311.219 38.176C311.56 38.176 311.731 38.2613 311.731 38.432C311.731 38.8587 311.197 39.264 310.131 39.648C309.704 39.8187 309.235 40.0107 308.723 40.224C308.253 40.4373 307.741 40.6933 307.187 40.992C304.2 48.416 300.595 54.5387 296.371 59.36C293.811 62.2613 291.4 63.712 289.139 63.712ZM290.483 62.368C291.293 62.368 292.275 61.7067 293.427 60.384C297.224 56.1173 300.552 50.528 303.411 43.616C297.736 47.84 293.512 52.2347 290.739 56.8C289.8 58.2933 289.331 59.616 289.331 60.768C289.331 61.8347 289.715 62.368 290.483 62.368Z" fill="black"/>
</svg>
