<svg width="90" height="90" viewBox="0 0 90 90" fill="none" xmlns="http://www.w3.org/2000/svg">
<path d="M51.5588 1.85621C49.5809 0.657788 47.3126 0.0241699 45 0.0241699C42.6874 0.0241699 40.4191 0.657788 38.4413 1.85621L8.91 19.755C7.04905 20.8826 5.51024 22.4709 4.44216 24.3667C3.37408 26.2624 2.81279 28.4015 2.8125 30.5775V59.4225C2.81279 61.5984 3.37408 63.7375 4.44216 65.6332C5.51024 67.529 7.04905 69.1173 8.91 70.245L38.4413 88.1437C40.4191 89.3421 42.6874 89.9757 45 89.9757C47.3126 89.9757 49.5809 89.3421 51.5588 88.1437L81.09 70.245C82.951 69.1173 84.4898 67.529 85.5578 65.6332C86.6259 63.7375 87.1872 61.5984 87.1875 59.4225V30.5775C87.1872 28.4015 86.6259 26.2624 85.5578 24.3667C84.4898 22.4709 82.951 20.8826 81.09 19.755L51.5588 1.85621Z" fill="#E6E147"/>
<path d="M68.6581 65.3216L60.4136 42.2702C59.8346 40.7536 58.5386 39.8161 57.0496 39.8161C55.5607 39.8161 54.2923 40.7536 53.6581 42.3253L45.4412 65.3216C45.0551 66.397 45.6066 67.5827 46.682 67.9687C47.7573 68.3547 48.943 67.8032 49.329 66.7279L51.0386 61.9577H63.0331L64.7426 66.7279C65.046 67.5827 65.8456 68.1066 66.7004 68.1066C66.921 68.1066 67.1691 68.079 67.3897 67.9963C68.4651 67.6102 69.0165 66.4246 68.6305 65.3492L68.6581 65.3216ZM52.5551 57.7941L57.0772 45.1378L61.5993 57.7941H52.5551ZM45.5239 33.5569C39.2922 43.4007 33.6673 49.3566 26.829 53.3271C26.4982 53.5202 26.1397 53.6029 25.8088 53.6029C25.0919 53.6029 24.4026 53.2444 24.0165 52.5827C23.4375 51.59 23.7684 50.3216 24.761 49.7702C30.5514 46.4062 35.2941 41.5808 40.6158 33.5845H23.2721C22.1415 33.5845 21.204 32.647 21.204 31.5165C21.204 30.386 22.1415 29.4485 23.2721 29.4485H33.6121V23.9889C33.6121 22.8584 34.5496 21.9209 35.6801 21.9209C36.8106 21.9209 37.7482 22.8584 37.7482 23.9889V29.4485H48.0882C49.2187 29.4485 50.1562 30.386 50.1562 31.5165C50.1562 32.647 49.2187 33.5845 48.0882 33.5845H45.4963L45.5239 33.5569ZM45.6342 53.6029C45.2757 53.6029 44.9173 53.5202 44.5864 53.3271C42.7941 52.2794 41.057 51.1213 39.4301 49.908C38.5202 49.2187 38.3272 47.9227 39.0165 47.0128C39.7059 46.1029 41.0018 45.9099 41.9118 46.5992C43.4007 47.7297 45.0276 48.7775 46.682 49.7426C47.6746 50.3216 48.0055 51.59 47.4265 52.5827C47.0404 53.2444 46.3511 53.6029 45.6342 53.6029Z" fill="black"/>
</svg>
