<svg width="96" height="94" viewBox="0 0 96 94" fill="none" xmlns="http://www.w3.org/2000/svg">
<path d="M54.996 1.93874C52.8863 0.687048 50.4667 0.0252686 48 0.0252686C45.5333 0.0252686 43.1137 0.687048 41.004 1.93874L9.504 20.633C7.51898 21.8107 5.87759 23.4697 4.7383 25.4497C3.59902 27.4297 3.00031 29.6638 3 31.9365V62.0635C3.00031 64.3361 3.59902 66.5703 4.7383 68.5503C5.87759 70.5303 7.51898 72.1892 9.504 73.367L41.004 92.0612C43.1137 93.3129 45.5333 93.9747 48 93.9747C50.4667 93.9747 52.8863 93.3129 54.996 92.0612L86.496 73.367C88.481 72.1892 90.1224 70.5303 91.2617 68.5503C92.401 66.5703 92.9997 64.3361 93 62.0635V31.9365C92.9997 29.6638 92.401 27.4297 91.2617 25.4497C90.1224 23.4697 88.481 21.8107 86.496 20.633L54.996 1.93874Z" fill="#7ED0EC"/>
<path d="M25.2727 47C25.2727 36.5095 25.2727 31.2642 28.6011 28.0052C31.9294 24.7462 37.2862 24.7462 48 24.7462C58.7136 24.7462 64.0707 24.7462 67.3989 28.0052C70.7273 31.2642 70.7273 36.5095 70.7273 47C70.7273 57.4904 70.7273 62.7359 67.3989 65.9947C64.0707 69.2538 58.7136 69.2538 48 69.2538C37.2862 69.2538 31.9294 69.2538 28.6011 65.9947C25.2727 62.7359 25.2727 57.4904 25.2727 47Z" stroke="#1C274C" stroke-width="2.55682"/>
<path d="M59.3636 53.6761H53.6818H48" stroke="#1C274C" stroke-width="2.55682" stroke-linecap="round"/>
<path d="M36.6364 42.5492L37.1691 42.9838C40.082 45.3607 41.5385 46.5491 41.5385 48.1126C41.5385 49.6762 40.082 50.8645 37.1691 53.2415L36.6364 53.6761" stroke="#1C274C" stroke-width="2.55682" stroke-linecap="round"/>
</svg>
