<!DOCTYPE svg PUBLIC "-//W3C//DTD SVG 1.1//EN" "http://www.w3.org/Graphics/SVG/1.1/DTD/svg11.dtd">
<!-- Uploaded to: SVG Repo, www.svgrepo.com, Transformed by: SVG Repo Mixer Tools -->
<svg width="108px" height="108px" viewBox="-6.24 -6.24 60.48 60.48" xmlns="http://www.w3.org/2000/svg" fill="#f3eded" stroke="#f3eded" stroke-width="0.00048000000000000007">
<g id="SVGRepo_bgCarrier" stroke-width="0">
<path transform="translate(-6.24, -6.24), scale(3.7800000000000002)" fill="#848d90" d="M9.166.33a2.25 2.25 0 00-2.332 0l-5.25 3.182A2.25 2.25 0 00.5 5.436v5.128a2.25 2.25 0 001.084 1.924l5.25 3.182a2.25 2.25 0 002.332 0l5.25-3.182a2.25 2.25 0 001.084-1.924V5.436a2.25 2.25 0 00-1.084-1.924L9.166.33z" strokewidth="0"/>
</g>
<g id="SVGRepo_tracerCarrier" stroke-linecap="round" stroke-linejoin="round"/>
<g id="SVGRepo_iconCarrier"> <path d="M0 0h48v48H0z" fill="none"/> <g id="Shopicon"> <path d="M10,22v2c0,7.72,6.28,14,14,14s14-6.28,14-14s-6.28-14-14-14h-4V4l-8,8l8,8v-6h4c5.514,0,10,4.486,10,10s-4.486,10-10,10 s-10-4.486-10-10v-2H10z"/> </g> </g>
</svg>