<svg width="97" height="97" viewBox="0 0 97 97" fill="none" xmlns="http://www.w3.org/2000/svg">
<path d="M55.5689 2.00066C53.4372 0.709023 50.9924 0.026123 48.5 0.026123C46.0076 0.026123 43.5628 0.709023 41.4311 2.00066L9.603 21.2915C7.59731 22.5069 5.93882 24.2187 4.78766 26.2619C3.63651 28.3051 3.03157 30.6106 3.03125 32.9558V64.0443C3.03157 66.3894 3.63651 68.6949 4.78766 70.7381C5.93882 72.7813 7.59731 74.4932 9.603 75.7085L41.4311 94.9994C43.5628 96.291 46.0076 96.9739 48.5 96.9739C50.9924 96.9739 53.4372 96.291 55.5689 94.9994L87.397 75.7085C89.4027 74.4932 91.0612 72.7813 92.2123 70.7381C93.3635 68.6949 93.9684 66.3894 93.9688 64.0443V32.9558C93.9684 30.6106 93.3635 28.3051 92.2123 26.2619C91.0612 24.2187 89.4027 22.5069 87.397 21.2915L55.5689 2.00066Z" fill="#EC7E9F"/>
<path fill-rule="evenodd" clip-rule="evenodd" d="M46.0356 24.8125C44.8496 25.3128 43.0413 26.6953 42.0167 27.8857C40.2534 29.9355 40.0476 30.0131 38.1358 29.3465C33.751 27.8179 27.9208 30.7272 25.4557 35.6739C22.7436 41.116 23.8477 46.3215 28.5338 50.1888C31.5244 52.6569 32.021 53.1535 34.4891 56.1441C37.8734 60.2449 42.5194 61.6496 47.2678 60.0064C49.0237 59.399 49.8961 59.4279 51.9644 60.1623C55.3961 61.381 58.9486 60.3133 62.2583 57.0688C63.6094 55.7448 65.077 54.6611 65.5194 54.6611C66.9235 54.6611 70.8308 50.7605 71.9953 48.1975C75.2391 41.0568 70.1734 32.5065 62.0544 31.4172C60.6989 31.2354 59.5899 30.8467 59.5899 30.5534C59.5899 29.2473 54.9802 25.0633 52.9064 24.4872C49.9312 23.661 48.6208 23.7232 46.0356 24.8125ZM46.5519 29.7247C45.5532 30.2669 44.4965 31.7025 43.8496 33.3967C42.6125 36.6362 42.907 36.5056 40.3514 34.9481C33.6912 30.8873 25.8815 38.1586 29.7925 44.7787C30.8799 46.6203 33.6093 48.5 35.1945 48.5C35.4551 48.5007 35.7049 48.6045 35.8891 48.7887C36.0734 48.973 36.1772 49.2227 36.1778 49.4833C36.1778 54.2538 43.2471 57.5204 47.5025 54.7153C49.2461 53.5657 49.3108 53.5657 51.1992 54.7165C54.4898 56.7238 58.4588 55.7689 60.1777 52.5571C60.6466 51.681 61.4259 50.9644 61.9096 50.9644C64.7985 50.9644 68.2154 46.9585 68.2154 43.5712C68.2154 38.837 64.4005 35.8051 59.211 36.4151C55.9913 36.7933 55.8933 36.7601 55.8933 35.2882C55.8933 30.2934 50.9386 27.3423 46.5519 29.7247ZM34.9456 64.5188C32.7369 66.7276 34.3178 70.6799 37.4101 70.6799C38.9972 70.6799 41.1067 68.5703 41.1067 66.9832C41.1067 66.3055 40.5522 65.1965 39.8745 64.5188C39.1968 63.8411 38.0878 63.2866 37.4101 63.2866C36.7323 63.2866 35.6234 63.8411 34.9456 64.5188ZM26.9609 69.11C25.3239 71.0822 27.7279 74.1116 29.8627 72.7673C31.9957 71.4235 31.236 68.2155 28.7846 68.2155C28.19 68.2155 27.3694 68.6178 26.9609 69.11Z" fill="black"/>
</svg>
