<svg width="58" height="414" viewBox="0 0 58 414" fill="none" xmlns="http://www.w3.org/2000/svg">
<path d="M0.52 0.855999C0.52 0.685332 0.594667 0.535999 0.744001 0.407999C0.914667 0.258665 1.10667 0.183998 1.32 0.183998L5.896 0.216L8.904 0.183998C9.18133 0.183998 9.39467 0.258665 9.544 0.407999C9.71467 0.535999 9.8 0.685332 9.8 0.855999C9.8 1.048 9.71467 1.21867 9.544 1.368C9.39467 1.496 9.17067 1.54933 8.872 1.528C7.89067 1.48533 6.70667 1.464 5.32 1.464H4.552C4.40267 1.464 4.2 1.464 3.944 1.464C3.688 1.44267 3.37867 1.44267 3.016 1.464C2.376 1.48533 2.056 1.80533 2.056 2.424C2.056 3.68267 2.04533 4.632 2.024 5.272L1.992 8.312V10.648C1.992 12.3333 2.01333 13.5387 2.056 14.264C2.07733 14.584 2.00267 14.84 1.832 15.032C1.68267 15.2027 1.50133 15.288 1.288 15.288C1.07467 15.288 0.882668 15.2027 0.712002 15.032C0.562668 14.84 0.498667 14.584 0.52 14.264C0.562668 13.5813 0.584002 12.44 0.584002 10.84V8.664L0.552 4.536C0.530667 3.704 0.52 2.47733 0.52 0.855999ZM17.672 7.992C17.5013 7.75733 17.416 7.544 17.416 7.352C17.416 7.16 17.5013 7.064 17.672 7.064C17.9067 7.064 18.1627 7.20267 18.44 7.48C19.8693 8.824 20.584 10.1253 20.584 11.384C20.584 11.7893 20.456 12.4293 20.2 13.304C19.9867 14.0933 19.8267 14.7867 19.72 15.384C19.6133 15.9813 19.56 16.6 19.56 17.24C19.56 18.3707 19.7093 18.936 20.008 18.936C20.2213 18.936 20.4133 18.6693 20.584 18.136C21.1173 16.4507 21.928 14.904 23.016 13.496C23.3573 13.0693 23.528 12.6 23.528 12.088C23.5707 9.57067 24.0293 7.352 24.904 5.432C25.8 3.512 27.1333 2.392 28.904 2.072C29.2453 2.02933 29.4907 2.008 29.64 2.008C30.6853 2.008 31.5707 2.47733 32.296 3.416C33.0427 4.35467 33.5547 5.88 33.832 7.992C33.896 8.48267 34.1627 8.77067 34.632 8.856C35.8267 9.112 36.904 9.592 37.864 10.296C38.824 11 39.5707 11.8747 40.104 12.92C40.6587 13.9653 40.936 15.0853 40.936 16.28C40.936 16.7067 40.8827 17.208 40.776 17.784C40.5627 18.872 40.0613 19.8427 39.272 20.696C38.4827 21.5493 37.5227 22.2213 36.392 22.712C35.2827 23.2027 34.1307 23.4907 32.936 23.576C32.488 23.5973 32.168 23.8 31.976 24.184C30.6747 26.4453 28.9253 28.056 26.728 29.016C26.408 29.144 26.1627 29.208 25.992 29.208C25.7573 29.208 25.64 29.1333 25.64 28.984C25.64 28.728 25.8747 28.4827 26.344 28.248C27.0267 27.928 27.7413 27.3947 28.488 26.648C29.2347 25.9013 29.8533 25.1013 30.344 24.248C30.408 24.12 30.44 23.992 30.44 23.864C30.44 23.5867 30.248 23.3733 29.864 23.224C28.2 22.6907 26.856 21.6773 25.832 20.184C24.8293 18.6907 24.1467 17.0053 23.784 15.128C23.7413 14.8933 23.656 14.776 23.528 14.776C23.4213 14.776 23.3147 14.8613 23.208 15.032C22.6747 15.9067 22.2587 16.856 21.96 17.88C21.6613 18.8827 21.512 19.8 21.512 20.632C21.512 21.5493 21.6827 22.2107 22.024 22.616C22.28 22.936 22.408 23.3413 22.408 23.832C22.408 24.2587 22.312 24.632 22.12 24.952C21.928 25.2507 21.672 25.4 21.352 25.4C20.7973 25.4 20.2 24.9413 19.56 24.024C18.3653 22.36 17.768 20.3227 17.768 17.912C17.768 17.08 17.8213 16.2373 17.928 15.384C18.0347 14.5093 18.0987 14.008 18.12 13.88C18.312 12.536 18.408 11.4907 18.408 10.744C18.408 9.57067 18.1627 8.65333 17.672 7.992ZM24.616 11.064C24.616 11.1707 24.6373 11.2667 24.68 11.352C24.744 11.416 24.8187 11.448 24.904 11.448C24.968 11.448 25.0747 11.3947 25.224 11.288C26.9093 9.96533 28.8293 9.13333 30.984 8.792C31.5173 8.728 31.7413 8.408 31.656 7.832C31.3787 5.99733 31.0267 4.70667 30.6 3.96C30.1733 3.21333 29.64 2.84 29 2.84C28.2107 2.84 27.496 3.24533 26.856 4.056C26.2373 4.84533 25.7253 5.86933 25.32 7.128C24.936 8.36533 24.7013 9.656 24.616 11V11.064ZM25.224 12.632C24.7973 13.0373 24.6267 13.5067 24.712 14.04C24.9467 15.9387 25.5547 17.528 26.536 18.808C27.5173 20.088 28.8187 20.952 30.44 21.4C30.504 21.4213 30.6 21.432 30.728 21.432C31.112 21.432 31.336 21.2187 31.4 20.792C31.848 18.2533 32.072 15.7467 32.072 13.272C32.072 12.2053 32.04 11.256 31.976 10.424C31.9547 10.168 31.8693 9.976 31.72 9.848C31.5707 9.72 31.3573 9.67733 31.08 9.72C28.9467 10.0613 26.9947 11.032 25.224 12.632ZM33.32 20.792C33.2987 20.856 33.288 20.9413 33.288 21.048C33.288 21.2613 33.352 21.4213 33.48 21.528C33.6293 21.6347 33.8213 21.6667 34.056 21.624C35.272 21.3893 36.296 20.8773 37.128 20.088C37.96 19.2987 38.4827 18.2533 38.696 16.952C38.76 16.5893 38.792 16.2373 38.792 15.896C38.792 14.616 38.44 13.4427 37.736 12.376C37.032 11.288 36.104 10.5093 34.952 10.04C34.824 9.99733 34.728 9.976 34.664 9.976C34.472 9.976 34.312 10.072 34.184 10.264C34.0773 10.456 34.0347 10.7227 34.056 11.064L34.088 12.472C34.088 15.7787 33.832 18.552 33.32 20.792ZM33.576 62.448C32.808 62.768 31.9333 63.0133 30.952 63.184C29.992 63.3547 29 63.44 27.976 63.44C25.6933 63.44 23.752 63.0027 22.152 62.128C20.5733 61.2747 19.784 59.9947 19.784 58.288C19.784 57.4773 20.04 56.72 20.552 56.016C21.064 55.2907 21.7467 54.6933 22.6 54.224C23.4533 53.7547 24.3813 53.4667 25.384 53.36C26.024 53.296 26.6213 53.264 27.176 53.264C28.0507 53.264 29 53.328 30.024 53.456C30.5147 53.52 30.9093 53.552 31.208 53.552C31.4213 53.552 31.5813 53.5307 31.688 53.488C31.7947 53.4453 31.848 53.36 31.848 53.232C31.848 53.168 31.8267 53.072 31.784 52.944L31.336 51.792C31.208 51.536 31.1013 51.28 31.016 51.024C30.824 50.4693 30.4933 50.192 30.024 50.192C29.8747 50.192 29.7573 50.2027 29.672 50.224C28.968 50.3947 28.0933 50.544 27.048 50.672C26.024 50.8 25.032 50.864 24.072 50.864C20.936 50.864 19.368 50.1067 19.368 48.592C19.368 48.0587 19.464 47.6213 19.656 47.28C19.7413 47.088 19.8587 46.9387 20.008 46.832C20.1787 46.704 20.3173 46.64 20.424 46.64C20.552 46.64 20.616 46.7253 20.616 46.896C20.616 47.024 20.5733 47.184 20.488 47.376C20.4027 47.5467 20.36 47.7173 20.36 47.888C20.36 48.7413 21.512 49.168 23.816 49.168C25.5013 49.168 27.2507 48.9867 29.064 48.624C29.6187 48.496 29.896 48.1653 29.896 47.632C29.896 47.4613 29.864 47.28 29.8 47.088C29.608 46.4267 29.512 46.0853 29.512 46.064C29.2773 45.296 28.808 44.9653 28.104 45.072C27.2933 45.2 26.3973 45.264 25.416 45.264C23.2187 45.264 21.5333 44.6133 20.36 43.312C20.04 42.928 19.88 42.5973 19.88 42.32C19.88 42.064 19.976 41.936 20.168 41.936C20.36 41.936 20.616 42.096 20.936 42.416C21.8747 43.44 23.3893 43.952 25.48 43.952C26.184 43.952 26.8987 43.888 27.624 43.76C28.2213 43.632 28.52 43.312 28.52 42.8L28.456 42.416L27.752 39.856C27.496 39.0027 27.048 38.5013 26.408 38.352C26.024 38.2667 25.832 38.1493 25.832 38C25.832 37.9147 25.896 37.8293 26.024 37.744C26.1733 37.6373 26.3547 37.5627 26.568 37.52C26.6533 37.4987 26.8027 37.488 27.016 37.488C27.6133 37.488 28.2 37.6373 28.776 37.936C29.352 38.2133 29.672 38.5653 29.736 38.992C29.8853 40.08 30.024 40.9013 30.152 41.456C30.1947 41.7547 30.2907 42 30.44 42.192C30.5893 42.3627 30.7493 42.448 30.92 42.448C31.0907 42.448 31.24 42.3733 31.368 42.224C31.4533 42.1173 31.624 41.9147 31.88 41.616C32.1573 41.3173 32.36 41.136 32.488 41.072C32.8293 40.9013 33.224 40.816 33.672 40.816C34.12 40.816 34.4933 40.9013 34.792 41.072C35.112 41.2427 35.272 41.456 35.272 41.712C35.272 41.8827 35.1653 42.064 34.952 42.256C34.0347 43.0453 32.9787 43.664 31.784 44.112C31.2293 44.304 30.952 44.6347 30.952 45.104L31.016 45.488L31.336 46.768C31.4 47.0453 31.5067 47.2587 31.656 47.408C31.8267 47.536 32.0293 47.6 32.264 47.6C32.456 47.6 32.6373 47.5573 32.808 47.472C33.704 47.0667 34.408 46.6293 34.92 46.16C35.432 45.6693 35.688 45.2853 35.688 45.008C35.688 44.8587 35.624 44.688 35.496 44.496C35.368 44.2827 35.208 44.112 35.016 43.984C34.888 43.8773 34.824 43.792 34.824 43.728C34.824 43.6213 34.8773 43.5467 34.984 43.504C35.0907 43.4613 35.208 43.472 35.336 43.536C36.1893 44.0053 36.7973 44.4107 37.16 44.752C37.5227 45.072 37.704 45.456 37.704 45.904C37.704 46.0747 37.6933 46.2027 37.672 46.288C37.5653 46.8427 37.1173 47.3653 36.328 47.856C35.56 48.3253 34.568 48.752 33.352 49.136C32.8187 49.328 32.552 49.6373 32.552 50.064C32.552 50.256 32.5947 50.4373 32.68 50.608C33.2347 51.8667 33.8 52.9653 34.376 53.904C34.952 54.8213 35.2933 55.3547 35.4 55.504C35.592 55.824 35.688 56.112 35.688 56.368C35.688 56.6667 35.56 56.912 35.304 57.104C35.048 57.2747 34.7387 57.36 34.376 57.36C34.0133 57.36 33.6613 57.2747 33.32 57.104C33 56.9333 32.7547 56.688 32.584 56.368C32.4347 56.0693 32.072 55.7493 31.496 55.408C30.9413 55.0453 30.248 54.7467 29.416 54.512C28.6053 54.256 27.7307 54.128 26.792 54.128C26.5573 54.128 26.2267 54.1493 25.8 54.192C24.1787 54.3627 22.984 54.8427 22.216 55.632C21.448 56.4213 21.1067 57.3173 21.192 58.32C21.2773 59.28 21.832 60.0267 22.856 60.56C23.9013 61.072 25.2133 61.328 26.792 61.328C28.3707 61.328 30.0453 61.0507 31.816 60.496C31.9227 60.4533 32.0933 60.432 32.328 60.432C32.776 60.432 33.192 60.5813 33.576 60.88C33.96 61.1573 34.152 61.456 34.152 61.776C34.152 62.0747 33.96 62.2987 33.576 62.448ZM18.44 76.36C18.76 76.36 19.1227 76.6907 19.528 77.352C20.0613 78.248 21.0427 78.6533 22.472 78.568C23.112 78.5467 23.4853 78.1627 23.592 77.416C23.848 75.56 23.976 74.568 23.976 74.44C23.976 73.928 23.912 73.576 23.784 73.384C23.656 73.1707 23.464 73.0213 23.208 72.936C22.9093 72.8507 22.76 72.7013 22.76 72.488C22.76 72.3813 22.8133 72.296 22.92 72.232C23.048 72.1467 23.2187 72.104 23.432 72.104C24.1147 72.104 24.776 72.2853 25.416 72.648C26.0773 72.9893 26.408 73.4907 26.408 74.152C26.408 74.3653 26.216 75.0053 25.832 76.072C25.768 76.2213 25.736 76.3813 25.736 76.552C25.736 76.7653 25.7893 76.9467 25.896 77.096C26.024 77.224 26.184 77.288 26.376 77.288C26.568 77.288 26.7707 77.2133 26.984 77.064C27.368 76.808 27.6347 76.616 27.784 76.488C28.1467 76.2107 28.328 75.9227 28.328 75.624C28.328 75.432 28.2427 75.2827 28.072 75.176L27.368 74.824C27.176 74.7173 27.08 74.6107 27.08 74.504C27.08 74.4187 27.1653 74.376 27.336 74.376C27.4427 74.376 27.5707 74.408 27.72 74.472C28.1253 74.6427 28.4347 74.76 28.648 74.824C28.8827 74.8667 29.128 74.9093 29.384 74.952C29.6613 74.9947 29.9067 75.0267 30.12 75.048C30.3973 75.0907 30.6213 75.2293 30.792 75.464C30.9627 75.6773 31.048 75.912 31.048 76.168C31.048 76.7013 30.5253 77.2347 29.48 77.768C28.456 78.3013 27.272 78.7493 25.928 79.112C25.288 79.2827 24.936 79.6773 24.872 80.296C24.6373 82.216 24.52 83.88 24.52 85.288C24.52 87.144 24.744 88.072 25.192 88.072C25.32 88.072 25.4693 87.9867 25.64 87.816C26.728 86.728 27.8053 85.9813 28.872 85.576C29.96 85.1707 31.0907 84.968 32.264 84.968C33.544 84.968 34.7173 85.256 35.784 85.832C36.872 86.408 37.7253 87.176 38.344 88.136C38.9627 89.096 39.272 90.1307 39.272 91.24C39.272 92.7333 38.696 93.992 37.544 95.016C36.4133 96.0187 34.984 96.7547 33.256 97.224C31.528 97.7147 29.7787 97.96 28.008 97.96C27.4533 97.96 27.048 97.9493 26.792 97.928C26.5147 97.9067 26.3013 97.8427 26.152 97.736C26.024 97.6507 25.96 97.5547 25.96 97.448C25.96 97.32 26.0133 97.2133 26.12 97.128C26.248 97.064 26.408 97.032 26.6 97.032C29.6933 97.032 32.1467 96.4987 33.96 95.432C35.7947 94.344 36.712 92.7653 36.712 90.696C36.712 89.864 36.5093 89.0853 36.104 88.36C35.72 87.6347 35.1653 87.0587 34.44 86.632C33.7147 86.184 32.8613 85.96 31.88 85.96C30.3013 85.96 28.9467 86.408 27.816 87.304C26.6853 88.1787 25.896 89.32 25.448 90.728C25.2987 91.176 25.0747 91.528 24.776 91.784C24.4773 92.04 24.1573 92.168 23.816 92.168C22.7707 92.168 22.248 91.1333 22.248 89.064C22.248 88.0187 22.5467 85.2987 23.144 80.904C23.1867 80.52 23.112 80.232 22.92 80.04C22.728 79.8267 22.44 79.7307 22.056 79.752C20.328 79.8373 19.1973 79.4427 18.664 78.568C18.5573 78.376 18.44 78.0987 18.312 77.736C18.184 77.3733 18.12 77.064 18.12 76.808C18.12 76.5093 18.2267 76.36 18.44 76.36ZM57.48 98.504C57.48 98.6747 57.3947 98.824 57.224 98.952C57.0747 99.1013 56.8933 99.176 56.68 99.176L52.104 99.144L49.096 99.176C48.8187 99.176 48.5947 99.1013 48.424 98.952C48.2747 98.824 48.2 98.6747 48.2 98.504C48.2 98.312 48.2747 98.1413 48.424 97.992C48.5947 97.864 48.8293 97.8107 49.128 97.832C50.1093 97.8747 51.2933 97.896 52.68 97.896H53.448C53.5973 97.896 53.8 97.896 54.056 97.896C54.312 97.9173 54.6213 97.9173 54.984 97.896C55.624 97.8747 55.944 97.5547 55.944 96.936C55.944 95.6773 55.9547 94.728 55.976 94.088L56.008 91.048V88.712C56.008 87.0267 55.9867 85.8213 55.944 85.096C55.9227 84.776 55.9867 84.5307 56.136 84.36C56.3067 84.168 56.4987 84.072 56.712 84.072C56.9253 84.072 57.1067 84.168 57.256 84.36C57.4267 84.5307 57.5013 84.776 57.48 85.096C57.4373 85.7787 57.416 86.92 57.416 88.52V90.696L57.448 94.824C57.4693 95.656 57.48 96.8827 57.48 98.504ZM29.736 132.864C27.4107 132.864 25.3413 132.384 23.528 131.424C21.736 130.464 20.9147 128.736 21.064 126.24C21.1707 123.957 22.8027 122.069 25.96 120.576C26.3653 120.384 26.568 120.128 26.568 119.808C26.568 119.616 26.504 119.392 26.376 119.136C25.864 118.219 25.608 117.013 25.608 115.52C25.608 114.517 25.6613 113.483 25.768 112.416C25.7893 112.117 25.8107 111.787 25.832 111.424C25.8533 111.04 25.864 110.635 25.864 110.208C25.864 109.525 25.8 108.971 25.672 108.544C25.544 108.117 25.3093 107.797 24.968 107.584C24.6907 107.392 24.552 107.2 24.552 107.008C24.552 106.901 24.584 106.816 24.648 106.752C24.7333 106.688 24.8507 106.656 25 106.656C25.1493 106.656 25.32 106.688 25.512 106.752C26.408 107.029 27.0587 107.349 27.464 107.712C28.104 108.288 28.424 108.907 28.424 109.568C28.424 109.888 28.328 110.411 28.136 111.136C27.8587 112.288 27.6987 113.259 27.656 114.048L27.624 116.192C27.624 117.323 27.6987 118.165 27.848 118.72C27.976 119.211 28.2853 119.456 28.776 119.456C28.8613 119.456 29.0107 119.435 29.224 119.392C31.3787 118.709 32.7867 118.432 33.448 118.56C33.8747 118.645 34.1947 118.816 34.408 119.072C34.6427 119.328 34.76 119.605 34.76 119.904C34.76 120.267 34.6 120.576 34.28 120.832C33.96 121.088 33.512 121.205 32.936 121.184C32.744 121.163 32.424 121.152 31.976 121.152C30.4613 121.152 28.936 121.333 27.4 121.696C25.8853 122.059 24.616 122.656 23.592 123.488C22.568 124.299 22.056 125.355 22.056 126.656C22.056 128.043 22.632 129.088 23.784 129.792C24.936 130.496 26.3867 130.848 28.136 130.848C29.032 130.848 29.9387 130.752 30.856 130.56C31.7733 130.368 32.6373 130.101 33.448 129.76C33.768 129.611 34.1093 129.536 34.472 129.536C34.9627 129.536 35.3573 129.696 35.656 130.016C35.976 130.315 36.136 130.656 36.136 131.04C36.136 131.339 36.0293 131.616 35.816 131.872C35.6027 132.107 35.2933 132.267 34.888 132.352C33.3093 132.693 31.592 132.864 29.736 132.864ZM25.832 146.104C25.6613 146.104 25.5227 146.072 25.416 146.008C25.3307 145.923 25.288 145.827 25.288 145.72C25.288 145.613 25.3307 145.528 25.416 145.464C25.5227 145.379 25.672 145.325 25.864 145.304C28.1467 145.091 30.3013 144.632 32.328 143.928C34.376 143.224 36.328 142.147 38.184 140.696C38.6107 140.376 39.016 140.216 39.4 140.216C39.784 140.216 40.1253 140.355 40.424 140.632C40.7227 140.909 40.9253 141.283 41.032 141.752C41.0533 141.795 41.064 141.859 41.064 141.944C41.064 142.072 41.032 142.179 40.968 142.264C40.904 142.349 40.8293 142.392 40.744 142.392C40.6587 142.392 40.5733 142.349 40.488 142.264C40.36 142.093 40.2533 142.008 40.168 142.008C40.0827 142.008 39.9227 142.083 39.688 142.232C38.3013 143.149 36.84 143.885 35.304 144.44C34.6853 144.653 34.376 145.08 34.376 145.72V154.168C34.376 154.509 34.472 154.787 34.664 155C34.8773 155.192 35.1547 155.288 35.496 155.288H38.696C39.1227 155.288 39.4747 155.203 39.752 155.032C40.0507 154.84 40.36 154.584 40.68 154.264C41.1493 153.795 41.6293 153.56 42.12 153.56C42.3973 153.56 42.6747 153.645 42.952 153.816C43.272 154.029 43.5707 154.285 43.848 154.584C44.0827 154.861 44.2 155.128 44.2 155.384C44.2 155.619 44.104 155.811 43.912 155.96C43.72 156.109 43.4427 156.184 43.08 156.184L35.496 156.216C35.1547 156.216 34.8773 156.312 34.664 156.504C34.472 156.696 34.376 156.973 34.376 157.336V167.128C34.376 168.003 34.1627 168.632 33.736 169.016C33.3093 169.421 32.744 169.624 32.04 169.624C31.8053 169.624 31.6453 169.56 31.56 169.432C31.4747 169.325 31.3893 169.133 31.304 168.856C31.2187 168.515 31.1013 168.227 30.952 167.992C30.8027 167.779 30.5467 167.597 30.184 167.448C29.2453 167.064 27.8907 166.541 26.12 165.88C25.7573 165.731 25.576 165.539 25.576 165.304C25.576 165.155 25.6507 165.037 25.8 164.952C25.9493 164.867 26.12 164.856 26.312 164.92C28.4453 165.731 29.9387 166.2 30.792 166.328C30.8987 166.349 31.0373 166.36 31.208 166.36C31.6133 166.36 31.9013 166.243 32.072 166.008C32.2427 165.773 32.328 165.411 32.328 164.92V157.304C32.328 156.941 32.232 156.664 32.04 156.472C31.848 156.28 31.5707 156.184 31.208 156.184H27.912C27.0587 156.184 26.024 156.227 24.808 156.312L24.04 156.376C23.8267 156.397 23.656 156.344 23.528 156.216C23.4213 156.067 23.368 155.907 23.368 155.736C23.368 155.544 23.4213 155.384 23.528 155.256C23.656 155.128 23.8267 155.075 24.04 155.096L24.808 155.16C26.152 155.245 27.1867 155.288 27.912 155.288H31.208C31.5707 155.288 31.848 155.192 32.04 155C32.232 154.787 32.328 154.509 32.328 154.168V146.584C32.328 146.264 32.2427 146.019 32.072 145.848C31.9227 145.656 31.7093 145.56 31.432 145.56C31.304 145.56 31.1973 145.571 31.112 145.592C29.4907 145.869 27.7413 146.04 25.864 146.104H25.832ZM14.664 144.408C14.664 144.173 14.824 144.056 15.144 144.056C15.528 144.056 15.8373 144.109 16.072 144.216C16.328 144.323 16.584 144.461 16.84 144.632C17.096 144.803 17.2773 144.888 17.384 144.888H19.56C19.752 144.888 19.9333 144.845 20.104 144.76C20.296 144.653 20.4667 144.536 20.616 144.408C20.744 144.301 20.8827 144.205 21.032 144.12C21.1813 144.013 21.3307 143.96 21.48 143.96C21.8213 143.96 22.1627 144.067 22.504 144.28C22.8667 144.493 23.1653 144.739 23.4 145.016C23.656 145.293 23.784 145.517 23.784 145.688C23.784 145.837 23.752 145.955 23.688 146.04C23.624 146.104 23.528 146.189 23.4 146.296C23.2293 146.424 23.0907 146.563 22.984 146.712C22.8987 146.861 22.856 147.085 22.856 147.384V162.968C22.856 163.373 22.7067 163.693 22.408 163.928C22.1093 164.163 21.7787 164.28 21.416 164.28C21.096 164.28 20.8933 164.152 20.808 163.896C20.744 163.619 20.712 163.096 20.712 162.328C20.712 161.944 20.616 161.645 20.424 161.432C20.232 161.197 19.9547 161.08 19.592 161.08H17.832C17.4693 161.08 17.192 161.165 17 161.336C16.808 161.485 16.712 161.709 16.712 162.008C16.712 162.819 16.5733 163.405 16.296 163.768C16.0187 164.109 15.688 164.28 15.304 164.28C14.8773 164.28 14.664 164.035 14.664 163.544V144.408ZM16.712 159.064C16.712 159.405 16.808 159.672 17 159.864C17.192 160.056 17.4693 160.163 17.832 160.184L19.688 160.216C20.0507 160.216 20.328 160.12 20.52 159.928C20.712 159.715 20.808 159.437 20.808 159.096V146.872C20.808 146.509 20.712 146.232 20.52 146.04C20.328 145.848 20.0507 145.752 19.688 145.752H17.832C17.4907 145.752 17.2133 145.848 17 146.04C16.808 146.232 16.712 146.509 16.712 146.872V159.064ZM36.104 153.592C37.2347 152.376 38.2587 150.787 39.176 148.824C39.368 148.419 39.624 148.109 39.944 147.896C40.264 147.683 40.5947 147.576 40.936 147.576C41.256 147.576 41.5547 147.672 41.832 147.864C42.1093 148.035 42.3227 148.291 42.472 148.632C42.5573 148.888 42.6 149.037 42.6 149.08C42.6 149.251 42.5467 149.357 42.44 149.4C42.3547 149.443 42.2587 149.411 42.152 149.304C42.0667 149.219 41.9813 149.208 41.896 149.272C41.8107 149.336 41.6827 149.464 41.512 149.656C41.3413 149.848 41.2027 150.008 41.096 150.136C40.4987 150.84 39.7947 151.565 38.984 152.312C38.1733 153.037 37.4267 153.645 36.744 154.136C36.616 154.243 36.4667 154.296 36.296 154.296C36.1893 154.296 36.0933 154.264 36.008 154.2C35.944 154.136 35.912 154.061 35.912 153.976C35.912 153.848 35.976 153.72 36.104 153.592ZM25.96 148.984C25.8747 148.899 25.832 148.803 25.832 148.696C25.832 148.589 25.864 148.504 25.928 148.44C26.0133 148.355 26.12 148.312 26.248 148.312C26.3333 148.312 26.44 148.344 26.568 148.408C28.8507 149.667 30.1307 151.107 30.408 152.728C30.472 153.133 30.3867 153.464 30.152 153.72C29.9173 153.976 29.64 154.104 29.32 154.104C28.8507 154.104 28.52 153.827 28.328 153.272C28.0293 152.333 27.7093 151.533 27.368 150.872C27.0267 150.189 26.5573 149.56 25.96 148.984ZM33.064 202.96C31.4 202.96 30.1093 202.491 29.192 201.552C28.296 200.613 27.848 199.323 27.848 197.68C27.848 197.147 27.8907 196.635 27.976 196.144C28.04 195.76 28.072 195.408 28.072 195.088C28.072 194.448 27.976 193.904 27.784 193.456C27.592 192.987 27.336 192.656 27.016 192.464C26.6533 192.229 26.216 192.112 25.704 192.112C25.1493 192.112 24.584 192.293 24.008 192.656C23.4533 192.997 22.9413 193.563 22.472 194.352C21.8533 195.397 21.352 196.496 20.968 197.648C20.584 198.779 20.3067 200.389 20.136 202.48C20.1147 202.8 20.0187 203.035 19.848 203.184C19.6987 203.355 19.496 203.44 19.24 203.44C18.8773 203.44 18.536 203.28 18.216 202.96C17.9173 202.661 17.768 202.267 17.768 201.776C17.768 201.691 17.7893 201.52 17.832 201.264C18.536 198.384 19.5173 195.451 20.776 192.464C22.056 189.456 23.496 186.288 25.096 182.96C25.2027 182.747 25.4587 182.203 25.864 181.328C26.2907 180.432 26.5253 179.877 26.568 179.664L26.6 179.376C26.6 179.077 26.5253 178.8 26.376 178.544C26.2267 178.267 26.056 178.064 25.864 177.936C25.6507 177.787 25.544 177.659 25.544 177.552C25.544 177.445 25.6187 177.371 25.768 177.328C25.9387 177.264 26.1307 177.243 26.344 177.264C27.0693 177.349 27.752 177.648 28.392 178.16C29.0533 178.651 29.384 179.184 29.384 179.76C29.384 180.059 29.2773 180.347 29.064 180.624C27.1227 183.248 25.256 186.619 23.464 190.736C23.3573 190.949 23.304 191.152 23.304 191.344C23.304 191.493 23.368 191.568 23.496 191.568C23.6453 191.568 23.8907 191.483 24.232 191.312C25.0427 190.885 25.8747 190.672 26.728 190.672C27.3467 190.672 27.88 190.8 28.328 191.056C28.9893 191.419 29.4587 191.899 29.736 192.496C30.0347 193.072 30.184 193.797 30.184 194.672C30.184 195.184 30.1307 195.845 30.024 196.656C29.96 197.104 29.928 197.509 29.928 197.872C29.928 199.088 30.2373 199.995 30.856 200.592C31.496 201.189 32.4027 201.488 33.576 201.488C34.6 201.488 35.656 201.157 36.744 200.496C37.832 199.835 38.8027 198.917 39.656 197.744C40.5093 196.549 41.1173 195.216 41.48 193.744C41.5653 193.424 41.6613 193.179 41.768 193.008C41.8747 192.837 41.9813 192.752 42.088 192.752C42.1947 192.752 42.2907 192.837 42.376 193.008C42.4613 193.157 42.504 193.339 42.504 193.552C42.504 193.637 42.4827 193.787 42.44 194C42.056 195.6 41.4373 197.083 40.584 198.448C39.7307 199.792 38.664 200.88 37.384 201.712C36.104 202.544 34.664 202.96 33.064 202.96ZM36.68 237.288C36.4667 237.309 36.1467 237.32 35.72 237.32C32.712 237.32 30.4187 236.605 28.84 235.176C27.2613 233.747 26.472 231.667 26.472 228.936C26.472 227.187 26.8347 225.48 27.56 223.816C28.2853 222.131 29.2667 220.701 30.504 219.528C30.824 219.229 30.984 219.027 30.984 218.92C30.984 218.813 30.8987 218.76 30.728 218.76C30.6853 218.76 30.4507 218.803 30.024 218.888C28.8507 219.208 27.7947 219.549 26.856 219.912C25.9173 220.253 25.3733 220.456 25.224 220.52C24.2427 220.904 23.464 221.181 22.888 221.352C22.3333 221.523 21.8 221.608 21.288 221.608C20.6267 221.608 19.9547 221.437 19.272 221.096C18.0987 220.477 17.3413 219.539 17 218.28C16.936 218.067 16.9467 217.885 17.032 217.736C17.1173 217.587 17.2453 217.512 17.416 217.512C17.6293 217.512 17.8533 217.64 18.088 217.896C18.5147 218.365 19.0373 218.739 19.656 219.016C20.2747 219.272 21.128 219.379 22.216 219.336C22.792 219.315 23.5387 219.176 24.456 218.92C25.3947 218.643 26.792 218.205 28.648 217.608C28.9893 217.501 29.8213 217.245 31.144 216.84C32.488 216.413 33.7253 216.051 34.856 215.752C36.008 215.453 37.032 215.229 37.928 215.08C38.0133 215.059 38.152 215.048 38.344 215.048C38.8773 215.048 39.4 215.197 39.912 215.496C40.424 215.773 40.8507 216.115 41.192 216.52C41.5333 216.904 41.704 217.256 41.704 217.576C41.704 218.045 41.3413 218.28 40.616 218.28C40.5307 218.28 40.3173 218.259 39.976 218.216C39.2293 218.109 38.568 218.056 37.992 218.056C36.072 218.056 34.3547 218.504 32.84 219.4C31.3253 220.296 30.1413 221.523 29.288 223.08C28.456 224.616 28.04 226.301 28.04 228.136C28.04 228.52 28.0507 228.808 28.072 229C28.136 229.875 28.36 230.739 28.744 231.592C29.1493 232.445 29.7893 233.171 30.664 233.768C31.56 234.344 32.712 234.632 34.12 234.632L35.24 234.6C35.8587 234.6 36.4133 234.813 36.904 235.24C37.3947 235.667 37.64 236.093 37.64 236.52C37.64 236.733 37.5547 236.904 37.384 237.032C37.2347 237.181 37 237.267 36.68 237.288ZM37.576 221.736C38.7067 222.632 39.5173 223.443 40.008 224.168C40.52 224.872 40.776 225.459 40.776 225.928C40.776 226.227 40.6907 226.461 40.52 226.632C40.3707 226.781 40.1787 226.856 39.944 226.856C39.7307 226.856 39.5173 226.792 39.304 226.664C39.112 226.515 38.952 226.312 38.824 226.056C38.7173 225.843 38.632 225.661 38.568 225.512C38.5253 225.341 38.4827 225.192 38.44 225.064C38.2693 224.509 38.0667 224.019 37.832 223.592C37.6187 223.165 37.2667 222.707 36.776 222.216C36.5627 222.003 36.456 221.811 36.456 221.64C36.456 221.469 36.5627 221.384 36.776 221.384C37.0107 221.384 37.2773 221.501 37.576 221.736ZM34.504 222.984C35.6133 223.987 36.4133 224.872 36.904 225.64C37.3947 226.387 37.64 227.016 37.64 227.528C37.64 227.827 37.5547 228.061 37.384 228.232C37.2347 228.403 37.0427 228.488 36.808 228.488C36.552 228.488 36.3067 228.403 36.072 228.232C35.8587 228.061 35.6987 227.816 35.592 227.496L35.336 226.696C35.208 226.12 35.0267 225.597 34.792 225.128C34.5787 224.637 34.216 224.072 33.704 223.432C33.5333 223.219 33.448 223.037 33.448 222.888C33.448 222.696 33.544 222.6 33.736 222.6C33.9707 222.6 34.2267 222.728 34.504 222.984ZM20.68 260.48C20.5947 260.203 20.552 259.904 20.552 259.584C20.552 258.603 20.9787 257.803 21.832 257.184C22.6853 256.544 23.688 256.096 24.84 255.84C25.2453 255.776 25.4907 255.648 25.576 255.456V255.424C25.576 255.232 25.4053 255.04 25.064 254.848C24.4027 254.464 23.688 254.101 22.92 253.76C22.152 253.419 21.4587 253.173 20.84 253.024C20.6053 252.981 20.424 252.907 20.296 252.8C20.168 252.693 20.104 252.576 20.104 252.448C20.104 252.32 20.168 252.224 20.296 252.16C20.4453 252.096 20.648 252.075 20.904 252.096C22.7387 252.437 24.0933 252.725 24.968 252.96C25.224 253.003 25.384 253.024 25.448 253.024C25.9387 253.024 26.2267 252.789 26.312 252.32L26.472 251.328C26.6213 250.176 26.696 249.344 26.696 248.832C26.696 247.851 26.4613 247.2 25.992 246.88C25.7787 246.731 25.672 246.571 25.672 246.4C25.672 246.293 25.7147 246.208 25.8 246.144C25.9067 246.08 26.0347 246.048 26.184 246.048C26.4613 246.048 26.8773 246.187 27.432 246.464C28.008 246.72 28.5093 247.093 28.936 247.584C29.384 248.053 29.608 248.597 29.608 249.216C29.608 249.493 29.5653 249.76 29.48 250.016L28.584 252.448L28.328 253.088C28.1787 253.408 28.104 253.675 28.104 253.888C28.104 254.08 28.168 254.208 28.296 254.272L28.68 254.496C29.064 254.731 29.352 254.987 29.544 255.264C29.736 255.541 29.832 255.819 29.832 256.096C29.832 256.437 29.6827 256.725 29.384 256.96C29.0853 257.195 28.6907 257.312 28.2 257.312C27.9653 257.312 27.7307 257.28 27.496 257.216C27.432 257.195 27.336 257.184 27.208 257.184C26.8667 257.184 26.632 257.365 26.504 257.728C25.928 259.349 25.512 260.64 25.256 261.6C25.2347 261.664 25.224 261.76 25.224 261.888C25.224 262.229 25.416 262.464 25.8 262.592C26.9307 262.891 28.1893 263.04 29.576 263.04C30.1093 263.04 30.5147 263.168 30.792 263.424C31.0907 263.659 31.24 263.936 31.24 264.256C31.24 264.576 31.1013 264.853 30.824 265.088C30.5467 265.301 30.1627 265.408 29.672 265.408C28.328 265.408 26.952 265.173 25.544 264.704C25.3733 264.661 25.256 264.64 25.192 264.64C24.8293 264.64 24.6267 264.864 24.584 265.312C24.5627 265.504 24.552 265.771 24.552 266.112C24.552 266.965 24.6693 267.669 24.904 268.224C25.416 269.44 26.1307 270.368 27.048 271.008C27.9653 271.627 28.9467 271.936 29.992 271.936C30.6107 271.936 31.2293 271.819 31.848 271.584C32.4667 271.349 33.0213 271.019 33.512 270.592C34.216 269.973 34.76 269.173 35.144 268.192C35.5493 267.211 35.752 266.187 35.752 265.12C35.752 263.925 35.4853 262.827 34.952 261.824C34.44 260.8 33.6613 260.021 32.616 259.488C32.232 259.253 32.04 259.029 32.04 258.816C32.04 258.624 32.168 258.528 32.424 258.528C32.6373 258.528 32.9253 258.624 33.288 258.816C34.7813 259.648 35.8907 260.715 36.616 262.016C37.3413 263.296 37.704 264.629 37.704 266.016C37.704 266.805 37.5867 267.552 37.352 268.256C37.1387 268.96 36.84 269.568 36.456 270.08C35.7093 271.04 34.7067 271.808 33.448 272.384C32.1893 272.981 30.888 273.28 29.544 273.28C28.2853 273.28 27.112 272.992 26.024 272.416C24.9573 271.84 24.0933 270.944 23.432 269.728C22.9413 268.853 22.696 267.797 22.696 266.56C22.696 265.856 22.7813 265.056 22.952 264.16C23.016 263.733 22.8667 263.371 22.504 263.072C21.5867 262.304 20.9787 261.44 20.68 260.48ZM22.056 260.16C22.2053 260.373 22.4507 260.651 22.792 260.992C22.9413 261.141 23.1013 261.216 23.272 261.216C23.5707 261.216 23.7733 261.024 23.88 260.64C23.944 260.448 24.0933 260.011 24.328 259.328L24.872 257.664C24.9573 257.429 24.936 257.237 24.808 257.088C24.68 256.939 24.4773 256.864 24.2 256.864C24.0293 256.864 23.848 256.896 23.656 256.96C23.0373 257.173 22.5467 257.472 22.184 257.856C21.8427 258.24 21.672 258.645 21.672 259.072C21.672 259.435 21.8 259.797 22.056 260.16ZM24.776 307.256C24.2 307.256 23.5067 307.096 22.696 306.776C21.8853 306.456 21.1387 306.008 20.456 305.432C19.368 304.493 18.504 303.309 17.864 301.88C17.2453 300.429 16.936 298.605 16.936 296.408C16.936 294.061 17.3413 291.235 18.152 287.928C18.1733 287.864 18.184 287.757 18.184 287.608C18.184 287.331 18.0987 287.085 17.928 286.872C17.7787 286.637 17.608 286.456 17.416 286.328C17.224 286.136 17.128 285.976 17.128 285.848C17.128 285.741 17.1707 285.667 17.256 285.624C17.3413 285.56 17.4373 285.539 17.544 285.56C17.6933 285.603 18.0027 285.763 18.472 286.04C18.9627 286.296 19.2827 286.509 19.432 286.68C20.1573 287.469 20.52 288.195 20.52 288.856C20.52 289.176 20.424 289.507 20.232 289.848C19.8053 290.68 19.4533 291.747 19.176 293.048C18.8987 294.349 18.76 295.608 18.76 296.824C18.76 297.805 18.856 298.648 19.048 299.352C19.4107 300.696 19.9227 301.72 20.584 302.424C21.2453 303.128 21.9173 303.48 22.6 303.48C22.9627 303.48 23.2827 303.384 23.56 303.192C23.8587 302.979 24.0827 302.691 24.232 302.328C24.936 300.621 25.5547 299.267 26.088 298.264C26.6213 297.24 27.1973 296.355 27.816 295.608C28.0507 295.352 28.2747 295.224 28.488 295.224C28.7227 295.224 28.84 295.363 28.84 295.64C28.84 295.789 28.7973 295.939 28.712 296.088C27.9653 297.283 27.3253 298.509 26.792 299.768C26.28 301.005 26.024 302.104 26.024 303.064C26.024 303.811 26.184 304.397 26.504 304.824C26.7173 305.123 26.824 305.411 26.824 305.688C26.824 306.008 26.696 306.285 26.44 306.52C26.184 306.755 25.8853 306.936 25.544 307.064C25.224 307.192 24.968 307.256 24.776 307.256ZM38.856 299.768C39.0053 298.915 39.08 298.125 39.08 297.4C39.08 295.864 38.7813 294.563 38.184 293.496C37.608 292.408 36.6693 291.779 35.368 291.608C35.24 291.587 35.1333 291.544 35.048 291.48C34.9627 291.395 34.92 291.299 34.92 291.192C34.92 291.064 34.984 290.968 35.112 290.904C35.2613 290.819 35.4533 290.787 35.688 290.808C37.16 290.957 38.3653 291.469 39.304 292.344C40.264 293.219 40.9573 294.253 41.384 295.448C41.8107 296.621 42.024 297.741 42.024 298.808C42.024 299.597 41.832 300.205 41.448 300.632C41.0853 301.037 40.6587 301.24 40.168 301.24C39.7413 301.24 39.3893 301.101 39.112 300.824C38.856 300.547 38.7707 300.195 38.856 299.768ZM24.776 342.256C24.2 342.256 23.5067 342.096 22.696 341.776C21.8853 341.456 21.1387 341.008 20.456 340.432C19.368 339.493 18.504 338.309 17.864 336.88C17.2453 335.429 16.936 333.605 16.936 331.408C16.936 329.061 17.3413 326.235 18.152 322.928C18.1733 322.864 18.184 322.757 18.184 322.608C18.184 322.331 18.0987 322.085 17.928 321.872C17.7787 321.637 17.608 321.456 17.416 321.328C17.224 321.136 17.128 320.976 17.128 320.848C17.128 320.741 17.1707 320.667 17.256 320.624C17.3413 320.56 17.4373 320.539 17.544 320.56C17.6933 320.603 18.0027 320.763 18.472 321.04C18.9627 321.296 19.2827 321.509 19.432 321.68C20.1573 322.469 20.52 323.195 20.52 323.856C20.52 324.176 20.424 324.507 20.232 324.848C19.8053 325.68 19.4533 326.747 19.176 328.048C18.8987 329.349 18.76 330.608 18.76 331.824C18.76 332.805 18.856 333.648 19.048 334.352C19.4107 335.696 19.9227 336.72 20.584 337.424C21.2453 338.128 21.9173 338.48 22.6 338.48C22.9627 338.48 23.2827 338.384 23.56 338.192C23.8587 337.979 24.0827 337.691 24.232 337.328C24.936 335.621 25.5547 334.267 26.088 333.264C26.6213 332.24 27.1973 331.355 27.816 330.608C28.0507 330.352 28.2747 330.224 28.488 330.224C28.7227 330.224 28.84 330.363 28.84 330.64C28.84 330.789 28.7973 330.939 28.712 331.088C27.9653 332.283 27.3253 333.509 26.792 334.768C26.28 336.005 26.024 337.104 26.024 338.064C26.024 338.811 26.184 339.397 26.504 339.824C26.7173 340.123 26.824 340.411 26.824 340.688C26.824 341.008 26.696 341.285 26.44 341.52C26.184 341.755 25.8853 341.936 25.544 342.064C25.224 342.192 24.968 342.256 24.776 342.256ZM38.856 334.768C39.0053 333.915 39.08 333.125 39.08 332.4C39.08 330.864 38.7813 329.563 38.184 328.496C37.608 327.408 36.6693 326.779 35.368 326.608C35.24 326.587 35.1333 326.544 35.048 326.48C34.9627 326.395 34.92 326.299 34.92 326.192C34.92 326.064 34.984 325.968 35.112 325.904C35.2613 325.819 35.4533 325.787 35.688 325.808C37.16 325.957 38.3653 326.469 39.304 327.344C40.264 328.219 40.9573 329.253 41.384 330.448C41.8107 331.621 42.024 332.741 42.024 333.808C42.024 334.597 41.832 335.205 41.448 335.632C41.0853 336.037 40.6587 336.24 40.168 336.24C39.7413 336.24 39.3893 336.101 39.112 335.824C38.856 335.547 38.7707 335.195 38.856 334.768ZM36.68 377.288C36.4667 377.309 36.1467 377.32 35.72 377.32C32.712 377.32 30.4187 376.605 28.84 375.176C27.2613 373.747 26.472 371.667 26.472 368.936C26.472 367.187 26.8347 365.48 27.56 363.816C28.2853 362.131 29.2667 360.701 30.504 359.528C30.824 359.229 30.984 359.027 30.984 358.92C30.984 358.813 30.8987 358.76 30.728 358.76C30.6853 358.76 30.4507 358.803 30.024 358.888C28.8507 359.208 27.7947 359.549 26.856 359.912C25.9173 360.253 25.3733 360.456 25.224 360.52C24.2427 360.904 23.464 361.181 22.888 361.352C22.3333 361.523 21.8 361.608 21.288 361.608C20.6267 361.608 19.9547 361.437 19.272 361.096C18.0987 360.477 17.3413 359.539 17 358.28C16.936 358.067 16.9467 357.885 17.032 357.736C17.1173 357.587 17.2453 357.512 17.416 357.512C17.6293 357.512 17.8533 357.64 18.088 357.896C18.5147 358.365 19.0373 358.739 19.656 359.016C20.2747 359.272 21.128 359.379 22.216 359.336C22.792 359.315 23.5387 359.176 24.456 358.92C25.3947 358.643 26.792 358.205 28.648 357.608C28.9893 357.501 29.8213 357.245 31.144 356.84C32.488 356.413 33.7253 356.051 34.856 355.752C36.008 355.453 37.032 355.229 37.928 355.08C38.0133 355.059 38.152 355.048 38.344 355.048C38.8773 355.048 39.4 355.197 39.912 355.496C40.424 355.773 40.8507 356.115 41.192 356.52C41.5333 356.904 41.704 357.256 41.704 357.576C41.704 358.045 41.3413 358.28 40.616 358.28C40.5307 358.28 40.3173 358.259 39.976 358.216C39.2293 358.109 38.568 358.056 37.992 358.056C36.072 358.056 34.3547 358.504 32.84 359.4C31.3253 360.296 30.1413 361.523 29.288 363.08C28.456 364.616 28.04 366.301 28.04 368.136C28.04 368.52 28.0507 368.808 28.072 369C28.136 369.875 28.36 370.739 28.744 371.592C29.1493 372.445 29.7893 373.171 30.664 373.768C31.56 374.344 32.712 374.632 34.12 374.632L35.24 374.6C35.8587 374.6 36.4133 374.813 36.904 375.24C37.3947 375.667 37.64 376.093 37.64 376.52C37.64 376.733 37.5547 376.904 37.384 377.032C37.2347 377.181 37 377.267 36.68 377.288ZM37.576 361.736C38.7067 362.632 39.5173 363.443 40.008 364.168C40.52 364.872 40.776 365.459 40.776 365.928C40.776 366.227 40.6907 366.461 40.52 366.632C40.3707 366.781 40.1787 366.856 39.944 366.856C39.7307 366.856 39.5173 366.792 39.304 366.664C39.112 366.515 38.952 366.312 38.824 366.056C38.7173 365.843 38.632 365.661 38.568 365.512C38.5253 365.341 38.4827 365.192 38.44 365.064C38.2693 364.509 38.0667 364.019 37.832 363.592C37.6187 363.165 37.2667 362.707 36.776 362.216C36.5627 362.003 36.456 361.811 36.456 361.64C36.456 361.469 36.5627 361.384 36.776 361.384C37.0107 361.384 37.2773 361.501 37.576 361.736ZM34.504 362.984C35.6133 363.987 36.4133 364.872 36.904 365.64C37.3947 366.387 37.64 367.016 37.64 367.528C37.64 367.827 37.5547 368.061 37.384 368.232C37.2347 368.403 37.0427 368.488 36.808 368.488C36.552 368.488 36.3067 368.403 36.072 368.232C35.8587 368.061 35.6987 367.816 35.592 367.496L35.336 366.696C35.208 366.12 35.0267 365.597 34.792 365.128C34.5787 364.637 34.216 364.072 33.704 363.432C33.5333 363.219 33.448 363.037 33.448 362.888C33.448 362.696 33.544 362.6 33.736 362.6C33.9707 362.6 34.2267 362.728 34.504 362.984ZM14.92 394.24C14.8773 394.112 14.856 394.016 14.856 393.952C14.856 393.739 14.952 393.632 15.144 393.632C15.272 393.632 15.4 393.696 15.528 393.824C15.7627 394.037 15.9867 394.208 16.2 394.336C16.4133 394.443 16.7333 394.528 17.16 394.592C17.6293 394.635 18.056 394.656 18.44 394.656C19.208 394.656 20.232 394.603 21.512 394.496C22.6427 394.411 24.8187 394.133 28.04 393.664C28.7653 393.579 29.096 393.163 29.032 392.416C28.8827 390.325 28.744 388.821 28.616 387.904C28.5733 387.605 28.5093 387.392 28.424 387.264C28.3387 387.115 28.2213 386.987 28.072 386.88C27.944 386.773 27.88 386.645 27.88 386.496C27.88 386.347 27.976 386.229 28.168 386.144C28.36 386.059 28.616 386.016 28.936 386.016C29.2987 386.016 29.672 386.08 30.056 386.208C30.44 386.315 30.7387 386.485 30.952 386.72C31.976 387.765 33.2773 388.747 34.856 389.664C36.456 390.581 37.992 391.211 39.464 391.552C39.912 391.659 40.3173 391.936 40.68 392.384C41.064 392.832 41.288 393.227 41.352 393.568C41.3733 393.675 41.384 393.803 41.384 393.952C41.384 394.592 40.9893 394.912 40.2 394.912C39.7093 394.912 38.888 394.773 37.736 394.496C37.2027 394.368 36.4347 394.304 35.432 394.304C34.5147 394.304 33.416 394.357 32.136 394.464C31.4533 394.571 31.112 394.923 31.112 395.52C31.112 395.669 31.1333 395.957 31.176 396.384C31.2187 396.768 31.24 397.131 31.24 397.472C31.2613 397.963 31.4533 398.432 31.816 398.88C32.6267 399.861 33.032 401.365 33.032 403.392C33.032 404.224 32.9787 405.003 32.872 405.728C32.6587 407.115 32.0827 408.373 31.144 409.504C30.2053 410.613 29.1173 411.531 27.88 412.256C26.6427 412.981 25.448 413.504 24.296 413.824C24.232 413.845 24.136 413.856 24.008 413.856C23.688 413.856 23.528 413.728 23.528 413.472C23.528 413.216 23.6987 413.024 24.04 412.896C25.9173 412.235 27.4213 411.264 28.552 409.984C29.704 408.704 30.3973 407.243 30.632 405.6V405.44C30.632 405.163 30.5573 405.024 30.408 405.024C30.3013 405.024 30.1733 405.099 30.024 405.248C29.4693 405.803 28.7227 406.08 27.784 406.08C27.1013 406.08 26.44 405.931 25.8 405.632C25.16 405.333 24.6373 404.907 24.232 404.352C23.8267 403.776 23.624 403.125 23.624 402.4C23.624 401.589 23.848 400.821 24.296 400.096C24.744 399.371 25.32 398.763 26.024 398.272C26.7493 397.781 27.4853 397.451 28.232 397.28C28.6373 397.195 28.9253 397.077 29.096 396.928C29.2667 396.779 29.3413 396.523 29.32 396.16V395.936C29.256 395.168 28.84 394.837 28.072 394.944L26.184 395.2L25 395.36C22.888 395.68 21.2027 396.107 19.944 396.64C19.688 396.725 19.4533 396.8 19.24 396.864C19.0267 396.928 18.824 396.96 18.632 396.96C18.2693 396.96 17.832 396.875 17.32 396.704C16.68 396.512 16.1467 396.171 15.72 395.68C15.3147 395.168 15.048 394.688 14.92 394.24ZM30.984 392C30.984 392.405 31.0907 392.704 31.304 392.896C31.5173 393.067 31.816 393.12 32.2 393.056L34.792 392.672C35.0693 392.651 35.2827 392.576 35.432 392.448C35.5813 392.32 35.656 392.16 35.656 391.968C35.656 391.733 35.5173 391.488 35.24 391.232C34.2587 390.4 33.2987 389.696 32.36 389.12C32.104 388.971 31.9013 388.896 31.752 388.896C31.5173 388.896 31.336 388.992 31.208 389.184C31.08 389.355 31.016 389.589 31.016 389.888L30.984 392ZM24.968 402.4C24.968 402.955 25.2453 403.477 25.8 403.968C26.3547 404.437 26.9413 404.672 27.56 404.672C28.2853 404.672 28.8187 404.277 29.16 403.488C29.3733 402.891 29.48 401.579 29.48 399.552C29.4373 398.827 29.1813 398.421 28.712 398.336C28.6053 398.315 28.456 398.304 28.264 398.304C27.688 398.304 27.144 398.485 26.632 398.848C26.1413 399.211 25.736 399.712 25.416 400.352C25.1173 400.971 24.968 401.653 24.968 402.4ZM51.784 404.48C52.9147 404.48 53.8747 404.875 54.664 405.664C55.4533 406.453 55.848 407.403 55.848 408.512C55.848 409.237 55.6667 409.92 55.304 410.56C54.9413 411.179 54.44 411.669 53.8 412.032C53.1813 412.395 52.5093 412.576 51.784 412.576C51.0587 412.576 50.3867 412.395 49.768 412.032C49.1493 411.669 48.6587 411.179 48.296 410.56C47.9333 409.92 47.752 409.237 47.752 408.512C47.752 407.787 47.9333 407.115 48.296 406.496C48.6587 405.877 49.1493 405.387 49.768 405.024C50.3867 404.661 51.0587 404.48 51.784 404.48ZM51.784 411.648C52.6587 411.648 53.3947 411.339 53.992 410.72C54.6107 410.101 54.92 409.365 54.92 408.512C54.92 407.637 54.6107 406.901 53.992 406.304C53.3947 405.685 52.6587 405.376 51.784 405.376C50.9307 405.376 50.1947 405.685 49.576 406.304C48.9787 406.901 48.68 407.637 48.68 408.512C48.68 409.387 48.9787 410.133 49.576 410.752C50.1947 411.349 50.9307 411.648 51.784 411.648Z" fill="black"/>
</svg>
